G04 DipTrace 3.2.0.1*
G04 TopMask.gbr*
%MOIN*%
G04 #@! TF.FileFunction,Soldermask,Top*
G04 #@! TF.Part,Single*
%AMOUTLINE4*
4,1,16,
-0.045255,-0.012331,
-0.040831,-0.031568,
-0.028213,-0.047336,
-0.010003,-0.056067,
0.010191,-0.056033,
0.028371,-0.047241,
0.040935,-0.031431,
0.045296,-0.012179,
0.045255,0.012331,
0.040831,0.031568,
0.028213,0.047336,
0.010003,0.056067,
-0.010191,0.056033,
-0.028371,0.047241,
-0.040935,0.031431,
-0.045296,0.012179,
-0.045255,-0.012331,
0*%
%ADD30C,0.059055*%
%ADD36R,0.027559X0.021654*%
%ADD38R,0.03937X0.074803*%
%ADD40R,0.074803X0.03937*%
%ADD42R,0.047244X0.051181*%
%ADD44R,0.066929X0.059055*%
%ADD48R,0.051181X0.047244*%
%ADD54OUTLINE4*%
%FSLAX26Y26*%
G04*
G70*
G90*
G75*
G01*
G04 TopMask*
%LPD*%
D48*
X-423768Y-377710D3*
X-356839D3*
X33465Y-408298D3*
X-33465D3*
D44*
X0Y-221343D3*
Y-296146D3*
D30*
X-562992Y562992D3*
X562992D3*
X-562992Y-562992D3*
X562992D3*
D48*
X486051Y162248D3*
X552980D3*
D42*
X-161831Y-282623D3*
Y-215694D3*
X232581Y-458857D3*
Y-391928D3*
X355110Y-454273D3*
Y-387344D3*
D40*
X-267717Y23622D3*
Y73622D3*
Y123622D3*
Y173622D3*
Y223622D3*
Y273622D3*
Y323622D3*
Y373622D3*
X267717Y23622D3*
Y73622D3*
Y123622D3*
Y173622D3*
Y223622D3*
Y273622D3*
Y323622D3*
Y373622D3*
Y423622D3*
Y473622D3*
D38*
X-25000Y-90551D3*
X25000D3*
X-75000Y-90157D3*
X75000Y-90551D3*
X-125000D3*
X125000D3*
X-175000D3*
X175000D3*
D36*
X-40354Y-546605D3*
Y-572196D3*
X40354D3*
Y-546605D3*
X-40354Y-521014D3*
Y-597786D3*
X40354D3*
Y-521014D3*
D54*
X511240Y852D3*
X-504505Y-850D3*
D42*
X-507864Y-174217D3*
Y-107287D3*
X-507686Y-242175D3*
Y-309104D3*
M02*
