M48
INCH
T01C0.0118
T02C0.0433
T03C0.0591
%
T03
X-005630Y+005630
X+005630Y+005630
X-005630Y-005630
X+005630Y-005630
T01
X+004601Y+004618
X-004646Y+004536
X-000238Y+004318
X+000001Y+004319
X+000251Y+004319
X+005434Y+004098
X+005960Y+004091
X+004030Y+003875
X+005462Y+002694
X-005795Y+002463
X+005601Y+001044
X+004259Y-000728
X+004266Y-001039
X+004272Y-001351
X+001908Y-002065
X-003143Y-003786
X-002682Y-004177
X+001804Y-004411
X-004676Y-004684
T02
X+005112Y+000127G85X+005113Y-000110
X-005045Y+000110G85X-005045Y-000127
T01
X-005705Y-002511
T00
M30
