G04 DipTrace 3.2.0.1*
G04 TopPaste.gbr*
%MOIN*%
G04 #@! TF.FileFunction,Paste,Top*
G04 #@! TF.Part,Single*
%ADD33R,0.015748X0.031496*%
%ADD37R,0.011811X0.005906*%
%ADD39R,0.023622X0.059055*%
%ADD41R,0.059055X0.023622*%
%ADD43R,0.031496X0.035433*%
%ADD47R,0.035433X0.031496*%
%FSLAX26Y26*%
G04*
G70*
G90*
G75*
G01*
G04 TopPaste*
%LPD*%
D47*
X-423768Y-377710D3*
X-356839D3*
X33465Y-408298D3*
X-33465D3*
X486051Y162248D3*
X552980D3*
D43*
X-92825Y-263314D3*
Y-196385D3*
X232581Y-458857D3*
Y-391928D3*
X355110Y-454273D3*
Y-387344D3*
D41*
X-267717Y23622D3*
Y73622D3*
Y123622D3*
Y173622D3*
Y223622D3*
Y273622D3*
Y323622D3*
Y373622D3*
X267717Y23622D3*
Y73622D3*
Y123622D3*
Y173622D3*
Y223622D3*
Y273622D3*
Y323622D3*
Y373622D3*
Y423622D3*
Y473622D3*
D39*
X-25000Y-90551D3*
X25000D3*
X-75000Y-90157D3*
X75000Y-90551D3*
X-125000D3*
X125000D3*
X-175000D3*
X175000D3*
D37*
X-40354Y-546605D3*
Y-572196D3*
X40354D3*
Y-546605D3*
X-40354Y-521014D3*
Y-597786D3*
X40354D3*
Y-521014D3*
D43*
X-507864Y-174217D3*
Y-107287D3*
X-507686Y-242175D3*
Y-309104D3*
D33*
X-17063Y-294613D3*
Y-211936D3*
X18370Y-294613D3*
Y-211936D3*
D43*
X-154462Y-263336D3*
Y-196407D3*
X-214402Y-262765D3*
Y-195836D3*
M02*
