G04 DipTrace 3.2.0.1*
G04 Верхний.gbr*
%MOIN*%
G04 #@! TF.FileFunction,Copper,L1,Top*
G04 #@! TF.Part,Single*
%AMOUTLINE3*
4,1,16,
-0.041319,-0.011881,
-0.037196,-0.02981,
-0.025701,-0.044175,
-0.009112,-0.052129,
0.009286,-0.052097,
0.025848,-0.044088,
0.037294,-0.029685,
0.041358,-0.011741,
0.041319,0.011881,
0.037196,0.02981,
0.025701,0.044175,
0.009112,0.052129,
-0.009286,0.052097,
-0.025848,0.044088,
-0.037294,0.029685,
-0.041358,0.011741,
-0.041319,-0.011881,
0*%
%ADD17C,0.011811*%
%ADD30C,0.043307*%
G04 #@! TA.AperFunction,CopperBalancing*
%ADD10C,0.009843*%
G04 #@! TA.AperFunction,Conductor*
%ADD15C,0.005906*%
%ADD16C,0.007874*%
G04 #@! TA.AperFunction,CopperBalancing*
%ADD18C,0.019685*%
G04 #@! TA.AperFunction,ViaPad*
%ADD19C,0.023622*%
G04 #@! TA.AperFunction,Conductor*
%ADD20C,0.015748*%
%ADD21R,0.043307X0.03937*%
%ADD23R,0.03937X0.043307*%
%ADD24R,0.066929X0.031496*%
%ADD25R,0.031496X0.066929*%
%ADD26R,0.019685X0.01378*%
%ADD28R,0.023622X0.03937*%
G04 #@! TA.AperFunction,ComponentPad*
%ADD52OUTLINE3*%
%FSLAX26Y26*%
G04*
G70*
G90*
G75*
G01*
G04 Top*
%LPD*%
X-267717Y323622D2*
D15*
X-189862D1*
X-161402Y295163D1*
Y3537D1*
X-223480Y-58542D1*
Y-145979D1*
X-213812Y-155647D1*
X-153639D1*
X-148619Y-160667D1*
Y-190566D1*
X-154462Y-196407D1*
X-267717Y73622D2*
D16*
X-216105D1*
X-209054Y66571D1*
Y143D1*
X-265262Y-56064D1*
Y-289894D1*
X-210966Y-344190D1*
X158867D1*
X185963Y-317094D1*
X276513D1*
X308490Y-349071D1*
Y-454273D1*
Y-507301D1*
X218004Y-597786D1*
X40354D1*
X355110Y-454273D2*
X308490D1*
X-267717Y123622D2*
D15*
X-229308D1*
X-184707Y79021D1*
Y913D1*
X-239441Y-53820D1*
Y-168940D1*
X-222283Y-186097D1*
X-224142D1*
X-214402Y-195836D1*
X-92825Y-263314D2*
D16*
Y-247856D1*
X-56298D1*
X-48329Y-239886D1*
Y-217789D1*
X-42467Y-211927D1*
X-17073D1*
X-17063Y-211936D1*
X18370D2*
D15*
Y-245344D1*
X11466Y-252247D1*
X-32520D1*
X-47029Y-266757D1*
Y-297387D1*
X-55091Y-305448D1*
X-140534D1*
X-153193Y-292787D1*
Y-264604D1*
X-154462Y-263336D1*
X-214402Y-262765D2*
Y-304764D1*
X-192701Y-326465D1*
X-25176D1*
X-17556Y-318846D1*
Y-295106D1*
X-17063Y-294613D1*
X267717Y473622D2*
D17*
Y461832D1*
X460089D1*
X267717Y423622D2*
X366883D1*
X402955Y387550D1*
X267717Y373622D2*
X374035D1*
X390542Y357115D1*
X490707D1*
X543394Y409802D1*
X267717Y323622D2*
X491969D1*
X546163Y269428D1*
X25000Y-90551D2*
D18*
Y-139782D1*
X137098Y-251881D1*
X349588D1*
X405008D1*
X512682Y-144206D1*
Y852D1*
X527923D1*
X595969Y68898D1*
Y159873D1*
D17*
Y409114D1*
X511240Y852D2*
D18*
X512682D1*
X595969Y159873D2*
D17*
X555356D1*
X552980Y162248D1*
X125000Y-90551D2*
Y-24446D1*
X111782Y-11228D1*
X43268D1*
X27025Y-27471D1*
Y-88526D1*
X25000Y-90551D1*
X355110Y-387344D2*
Y-257403D1*
X349588Y-251881D1*
X18370Y-294613D2*
X98466D1*
X139148Y-253930D1*
D18*
X137098Y-251881D1*
X75000Y-90551D2*
Y-133625D1*
X148887Y-207512D1*
X191719D1*
X304341D1*
X352189Y-159664D1*
Y-12340D1*
X468976Y104448D1*
X560121D1*
X190810Y-206501D2*
D17*
X191719Y-207512D1*
X40354Y-521014D2*
X155367D1*
X180446Y-495936D1*
Y-441051D1*
X33465Y-408298D2*
X171770D1*
X180446Y-416974D1*
Y-441051D1*
X-40354Y-546605D2*
X-182155D1*
X-314379Y-414381D1*
Y-384352D1*
X-320110Y-378621D1*
X-342962D1*
X-314346D1*
X-342962D2*
X-356839Y-377710D1*
X-570508Y-251125D2*
Y-293041D1*
X-551969Y-311580D1*
X-510163D1*
X-507686Y-309104D1*
X-267717Y373622D2*
X-361768D1*
X-608394Y126996D1*
Y-174217D1*
Y-327615D1*
X-467571Y-468438D1*
X-507864Y-174217D2*
X-608394D1*
X-507686Y-242175D2*
Y-174394D1*
X-507864Y-174217D1*
X-464615Y453630D2*
X-139551D1*
X-122444Y436522D1*
Y238617D1*
X64816Y51357D1*
X191663D1*
X216286Y26734D1*
X267717D1*
Y23622D1*
X320646D1*
X459272Y162248D1*
X486051D1*
X-40354Y-521014D2*
X-173575D1*
D20*
X-196470Y-498119D1*
Y-408298D1*
X-33465D1*
X-504505Y-850D2*
Y14808D1*
X-521188Y-1874D1*
X-492711D1*
X-422324Y-72261D1*
Y-327566D1*
X-307386D1*
X-226654Y-408298D1*
X-196470D1*
X-504505Y-850D2*
X-493735D1*
X-421715Y-72870D2*
Y-377710D1*
X-423768D1*
X-40354Y-572196D2*
D16*
X-9264D1*
X16327Y-546605D1*
X40354D1*
X-40354Y-572196D2*
D17*
X-124839D1*
X-195950D1*
X-346743Y-421403D1*
X-415088D1*
X-423768Y-412723D1*
Y-377710D1*
X-40354Y-597786D2*
X-119927D1*
X-124839Y-592874D1*
Y-572196D1*
X40354Y-546605D2*
X187388D1*
X229226Y-504768D1*
Y-462213D1*
X232581Y-458857D1*
X-504505Y-850D2*
Y-103929D1*
X-507864Y-107287D1*
X-75000Y-90157D2*
D16*
X-83618D1*
Y-196385D1*
D17*
X-92825D1*
X40354Y-572196D2*
D16*
X205990D1*
X280268Y-497917D1*
Y-357336D1*
X267550Y-344618D1*
X232581D1*
X196088D1*
X171064Y-369642D1*
X-221869D1*
X-294573Y-296936D1*
Y23622D1*
X-267717D1*
X232581Y-391928D2*
Y-344618D1*
D19*
X460089Y461832D3*
X-464615Y453630D3*
X-23819Y431828D3*
X118Y431925D3*
X25106D3*
X543394Y409802D3*
X595969Y409114D3*
X402955Y387550D3*
X546163Y269428D3*
X-579537Y246337D3*
X560121Y104448D3*
X425852Y-72814D3*
X426650Y-103875D3*
X427151Y-135126D3*
X190810Y-206501D3*
X-314346Y-378621D3*
X-268184Y-417713D3*
X180446Y-441051D3*
X-467571Y-468438D3*
X-570508Y-251125D3*
X-505471Y533020D2*
D18*
X-495862D1*
X495160D2*
X505459D1*
X-521870Y513466D2*
X-472735D1*
X469251D2*
X521904D1*
X-607059Y493912D2*
X-478907D1*
X-450316D2*
X-432760D1*
X489346D2*
X606052D1*
X-607059Y474358D2*
X-503272D1*
X-107085D2*
X201961D1*
X502265D2*
X606052D1*
X-607094Y454804D2*
X-508690D1*
X-89214D2*
X201961D1*
X503592D2*
X606052D1*
X-607131Y435251D2*
X-504492D1*
X-84262D2*
X201961D1*
X494730D2*
X507878D1*
X-607131Y415697D2*
X-484899D1*
X-444324D2*
X-333467D1*
X-201962D2*
X-160650D1*
X-84262D2*
X201961D1*
X436274D2*
X496102D1*
X-607167Y396143D2*
X-392425D1*
X-201962D2*
X-160650D1*
X-84262D2*
X201961D1*
X446177D2*
X476546D1*
X-607202Y376589D2*
X-411983D1*
X-201962D2*
X-160650D1*
X-84262D2*
X201961D1*
X-607202Y357035D2*
X-431539D1*
X-201962D2*
X-160650D1*
X-84262D2*
X201961D1*
X543819D2*
X557787D1*
X-607239Y337482D2*
X-451096D1*
X-84262D2*
X201961D1*
X531295D2*
X557787D1*
X-607274Y317928D2*
X-470654D1*
X-364266D2*
X-333467D1*
X-84262D2*
X201961D1*
X550852D2*
X557802D1*
X-607274Y298374D2*
X-490210D1*
X-383824D2*
X-333467D1*
X-84262D2*
X201961D1*
X-607310Y278820D2*
X-509766D1*
X-403381D2*
X-333467D1*
X-84262D2*
X201961D1*
X333466D2*
X483579D1*
X-607346Y259266D2*
X-529324D1*
X-422937D2*
X-333467D1*
X-84262D2*
X201961D1*
X333466D2*
X503136D1*
X-607346Y239713D2*
X-548881D1*
X-442495D2*
X-333467D1*
X-70340D2*
X201961D1*
X333466D2*
X514332D1*
X-607382Y220159D2*
X-568437D1*
X-462051D2*
X-333467D1*
X-50782D2*
X201961D1*
X333466D2*
X557787D1*
X-607382Y200605D2*
X-587995D1*
X-481608D2*
X-333467D1*
X-31226D2*
X201961D1*
X333466D2*
X432121D1*
X-501129Y181051D2*
X-333467D1*
X-126175D2*
X-118073D1*
X-11668D2*
X201961D1*
X333466D2*
X424873D1*
X-520686Y161497D2*
X-333467D1*
X-126175D2*
X-98534D1*
X7853D2*
X201961D1*
X333466D2*
X405316D1*
X-540243Y141944D2*
X-333467D1*
X-126175D2*
X-78978D1*
X27409D2*
X201961D1*
X333466D2*
X385759D1*
X-559799Y122390D2*
X-333467D1*
X-126175D2*
X-59420D1*
X46966D2*
X201961D1*
X333466D2*
X366238D1*
X-570206Y102836D2*
X-333467D1*
X-126175D2*
X-39864D1*
X66524D2*
X201961D1*
X333466D2*
X346681D1*
X453067D2*
X553840D1*
X-570206Y83282D2*
X-333467D1*
X-126175D2*
X-20307D1*
X433510D2*
X510636D1*
X523186D2*
X551580D1*
X-570206Y63728D2*
X-554657D1*
X-454408D2*
X-333467D1*
X-126175D2*
X-749D1*
X413954D2*
X459644D1*
X-439121Y44175D2*
X-333467D1*
X-126175D2*
X18807D1*
X394396D2*
X444896D1*
X-433236Y24621D2*
X-333467D1*
X-126175D2*
X36139D1*
X374840D2*
X439550D1*
X-430904Y5067D2*
X-333467D1*
X-126175D2*
X6356D1*
X148661D2*
X184772D1*
X355283D2*
X437612D1*
X590899D2*
X606052D1*
X-424122Y-14487D2*
X-333467D1*
X-131486D2*
X-8752D1*
X161795D2*
X201961D1*
X333466D2*
X437827D1*
X584655D2*
X606052D1*
X-404564Y-34041D2*
X-330812D1*
X223014D2*
X442133D1*
X580420D2*
X606052D1*
X-570206Y-53594D2*
X-564112D1*
X-386766D2*
X-330812D1*
X223014D2*
X452970D1*
X569547D2*
X606052D1*
X-570206Y-73148D2*
X-559846D1*
X-381563D2*
X-330812D1*
X223014D2*
X470554D1*
X554799D2*
X606052D1*
X-570206Y-92702D2*
X-559846D1*
X-381563D2*
X-330812D1*
X223014D2*
X470554D1*
X554799D2*
X606052D1*
X-570206Y-112256D2*
X-559846D1*
X-381563D2*
X-330812D1*
X223014D2*
X470554D1*
X554799D2*
X606052D1*
X-570206Y-131810D2*
X-559846D1*
X-381563D2*
X-330812D1*
X223014D2*
X466319D1*
X554799D2*
X606052D1*
X-381563Y-151364D2*
X-330812D1*
X223014D2*
X446762D1*
X554154D2*
X606052D1*
X-381563Y-170917D2*
X-330812D1*
X114895D2*
X427205D1*
X544644D2*
X606052D1*
X-381563Y-190471D2*
X-330812D1*
X134451D2*
X407648D1*
X525194D2*
X606052D1*
X-381563Y-210025D2*
X-330812D1*
X154009D2*
X388092D1*
X505638D2*
X606052D1*
X-570206Y-229579D2*
X-559646D1*
X-381563D2*
X-330812D1*
X486081D2*
X606052D1*
X-570206Y-249133D2*
X-559646D1*
X-381563D2*
X-330812D1*
X62469D2*
X75602D1*
X466524D2*
X606052D1*
X-570206Y-268686D2*
X-559646D1*
X-381563D2*
X-330812D1*
X446967D2*
X606052D1*
X-570206Y-288240D2*
X-559646D1*
X-381563D2*
X-330812D1*
X424037D2*
X606052D1*
X-570206Y-307794D2*
X-559646D1*
X138471D2*
X144829D1*
X393285D2*
X606052D1*
X393285Y-327348D2*
X606052D1*
X407064Y-346902D2*
X606052D1*
X-516344Y-366455D2*
X-477722D1*
X407064D2*
X606052D1*
X-496823Y-386009D2*
X-477722D1*
X407064D2*
X606052D1*
X-608100Y-405563D2*
X-583652D1*
X-302904D2*
X-285346D1*
X87408D2*
X180609D1*
X407064D2*
X606052D1*
X-608135Y-425117D2*
X-564096D1*
X-289843D2*
X-265825D1*
X87408D2*
X180609D1*
X407064D2*
X606052D1*
X-608172Y-444671D2*
X-544538D1*
X-270286D2*
X-240277D1*
X165348D2*
X180609D1*
X407064D2*
X606052D1*
X-608172Y-464224D2*
X-524982D1*
X-423690D2*
X-357115D1*
X-250730D2*
X-236617D1*
X165348D2*
X180609D1*
X407064D2*
X606052D1*
X-608207Y-483778D2*
X-508762D1*
X-426382D2*
X-337559D1*
X165348D2*
X180609D1*
X407064D2*
X606052D1*
X-608243Y-503332D2*
X-585591D1*
X-540386D2*
X-493152D1*
X-334088D2*
X-318001D1*
X82492D2*
X177451D1*
X454108D2*
X540420D1*
X585588D2*
X606052D1*
X-512289Y-522886D2*
X-485294D1*
X-305022D2*
X-298425D1*
X485112D2*
X512286D1*
X-286110Y-542440D2*
X-278923D1*
X-271507Y-561993D2*
X-259331D1*
X-263755Y-581547D2*
X-239774D1*
X-258228Y-601101D2*
X-219751D1*
X-475736Y-409014D2*
Y-361073D1*
X-523720Y-361072D1*
X-475730Y-409056D1*
X-304870Y-384084D2*
Y-412045D1*
X-234682Y-482240D1*
X-234659Y-445621D1*
X-241268Y-443580D1*
X-246606Y-440860D1*
X-251455Y-437337D1*
X-286135Y-402823D1*
X-304887Y-384072D1*
X85433Y-403892D2*
Y-435039D1*
X155083Y-435160D1*
X158012Y-436112D1*
X160503Y-437923D1*
X162314Y-440413D1*
X163265Y-443343D1*
X163386Y-472441D1*
X163265Y-485791D1*
X162314Y-488720D1*
X160503Y-491211D1*
X158012Y-493022D1*
X155083Y-493974D1*
X125984Y-494094D1*
X80518D1*
X80512Y-510386D1*
X172373Y-510385D1*
X182558Y-500211D1*
X182617Y-406888D1*
X181648Y-402218D1*
X176423Y-403472D1*
X171064Y-403894D1*
X85408D1*
X-503353Y542415D2*
X-506749Y534335D1*
X-511924Y525890D1*
X-518357Y518357D1*
X-525890Y511924D1*
X-534335Y506749D1*
X-543486Y502958D1*
X-553118Y500646D1*
X-562992Y499869D1*
X-572866Y500646D1*
X-582499Y502958D1*
X-591650Y506749D1*
X-600094Y511924D1*
X-607627Y518357D1*
X-609270Y520134D1*
X-609051Y469357D1*
X-609395Y177224D1*
X-385291Y401164D1*
X-380693Y404505D1*
X-375629Y407085D1*
X-370223Y408841D1*
X-364609Y409731D1*
X-331517Y409843D1*
X-331496Y417377D1*
X-443096Y417409D1*
X-448495Y414710D1*
X-454781Y412668D1*
X-461310Y411634D1*
X-467921D1*
X-474450Y412668D1*
X-480736Y414710D1*
X-486626Y417711D1*
X-491974Y421597D1*
X-496648Y426272D1*
X-500534Y431619D1*
X-503535Y437509D1*
X-505577Y443795D1*
X-506612Y450324D1*
Y456936D1*
X-505577Y463465D1*
X-503535Y469751D1*
X-500534Y475640D1*
X-496648Y480988D1*
X-491974Y485663D1*
X-486626Y489549D1*
X-480736Y492550D1*
X-474450Y494592D1*
X-467921Y495626D1*
X-461310D1*
X-454781Y494592D1*
X-448495Y492550D1*
X-443135Y489845D1*
X-397332Y489850D1*
X-425550Y492203D1*
X-447619Y499623D1*
X-476810Y517244D1*
X-502441Y541102D1*
X-502898Y541730D1*
X608034Y518798D2*
X603987Y514992D1*
X595974Y509171D1*
X587148Y504673D1*
X577728Y501613D1*
X567945Y500063D1*
X558039D1*
X548256Y501613D1*
X538836Y504673D1*
X530010Y509171D1*
X521997Y514992D1*
X514992Y521997D1*
X509171Y530010D1*
X504673Y538836D1*
X502659Y544549D1*
X491152Y530745D1*
X453499Y503440D1*
X460089Y503958D1*
X466680Y503440D1*
X473106Y501896D1*
X479214Y499366D1*
X484850Y495912D1*
X489877Y491619D1*
X494169Y486593D1*
X497623Y480957D1*
X500154Y474849D1*
X501697Y468423D1*
X502215Y461832D1*
X501697Y455241D1*
X500154Y448815D1*
X497623Y442707D1*
X494169Y437071D1*
X489877Y432045D1*
X484850Y427752D1*
X479214Y424298D1*
X473106Y421768D1*
X466680Y420224D1*
X460089Y419706D1*
X453499Y420224D1*
X447072Y421768D1*
X440965Y424298D1*
X438609Y425617D1*
X421012Y425612D1*
X427717Y421630D1*
X432743Y417337D1*
X437035Y412311D1*
X440490Y406675D1*
X443020Y400567D1*
X444659Y393332D1*
X475696Y393336D1*
X502573Y420205D1*
X504474Y425923D1*
X507475Y431812D1*
X511361Y437160D1*
X516035Y441835D1*
X521383Y445720D1*
X527273Y448722D1*
X533559Y450764D1*
X540088Y451798D1*
X546699D1*
X553228Y450764D1*
X559514Y448722D1*
X565404Y445720D1*
X570093Y442354D1*
X573958Y445033D1*
X579848Y448034D1*
X586134Y450076D1*
X592663Y451110D1*
X599274D1*
X605803Y450076D1*
X608029Y449449D1*
X608022Y518778D1*
X-610217Y-521157D2*
X-603987Y-514992D1*
X-595974Y-509171D1*
X-587148Y-504673D1*
X-577728Y-501613D1*
X-567945Y-500063D1*
X-558039D1*
X-548256Y-501613D1*
X-538836Y-504673D1*
X-530010Y-509171D1*
X-521997Y-514992D1*
X-514992Y-521997D1*
X-509171Y-530010D1*
X-504673Y-538836D1*
X-502711Y-544362D1*
X-497098Y-536143D1*
X-480345Y-520202D1*
X-465562Y-510513D1*
X-470877Y-510434D1*
X-477406Y-509400D1*
X-483692Y-507358D1*
X-489581Y-504357D1*
X-494929Y-500471D1*
X-499604Y-495797D1*
X-503490Y-490449D1*
X-506491Y-484559D1*
X-508367Y-478857D1*
X-610030Y-377203D1*
X-610218Y-521081D1*
X503085Y-543140D2*
X506749Y-534335D1*
X511924Y-525890D1*
X518357Y-518357D1*
X525890Y-511924D1*
X534335Y-506749D1*
X543486Y-502958D1*
X553118Y-500646D1*
X562992Y-499869D1*
X572866Y-500646D1*
X582499Y-502958D1*
X591650Y-506749D1*
X600094Y-511924D1*
X607627Y-518357D1*
X608034Y-518798D1*
X608022Y24151D1*
X582878Y-984D1*
X582824Y-13218D1*
X580135Y-26546D1*
X577484Y-37829D1*
X575720Y-42247D1*
X573281Y-46343D1*
X559268Y-63902D1*
X555762Y-67117D1*
X553823Y-68513D1*
X552840Y-72639D1*
X552717Y-147357D1*
X551731Y-153580D1*
X549783Y-159573D1*
X546923Y-165189D1*
X543218Y-170286D1*
X515096Y-198585D1*
X431088Y-282416D1*
X425990Y-286121D1*
X420375Y-288982D1*
X414382Y-290929D1*
X408159Y-291915D1*
X391336Y-292038D1*
X391331Y-335379D1*
X405110Y-335375D1*
Y-490688D1*
X433760Y-495301D1*
X466337Y-509710D1*
X496699Y-533710D1*
X503085Y-543159D1*
X443269Y212248D2*
X559755D1*
X559748Y229524D1*
X552753Y227820D1*
X546163Y227302D1*
X539572Y227820D1*
X533146Y229364D1*
X527038Y231894D1*
X521402Y235348D1*
X516375Y239640D1*
X512083Y244667D1*
X508629Y250303D1*
X506098Y256411D1*
X505366Y259009D1*
X476984Y287383D1*
X331530Y287402D1*
X331461Y227559D1*
X331496Y114567D1*
Y85680D1*
X433668Y187867D1*
X434083Y194925D1*
Y212248D1*
X443269D1*
X501024Y112248D2*
X460474D1*
X344169Y-3920D1*
X339571Y-7261D1*
X334507Y-9841D1*
X331828Y-10829D1*
X331496Y-12992D1*
Y-22441D1*
X203937D1*
Y-7333D1*
X197361Y-4150D1*
X192762Y-808D1*
X176643Y15154D1*
X136652Y15136D1*
X152542Y-923D1*
X155883Y-5521D1*
X158463Y-10585D1*
X160219Y-15991D1*
X161109Y-21605D1*
X161614Y-26772D1*
X221063D1*
Y-154331D1*
X96316D1*
X153749Y-211740D1*
X388379Y-211723D1*
X472500Y-127597D1*
X472433Y-70659D1*
X468318Y-68272D1*
X464627Y-65270D1*
X456130Y-55091D1*
X448962Y-45983D1*
X446608Y-41849D1*
X444927Y-37390D1*
X439987Y-15822D1*
X439606Y-11080D1*
X439656Y14921D1*
X442345Y28249D1*
X444996Y39533D1*
X446760Y43950D1*
X449199Y48046D1*
X463213Y65605D1*
X466718Y68820D1*
X470692Y71451D1*
X490938Y81192D1*
X495492Y82567D1*
X500214Y83214D1*
X522678Y83206D1*
X527378Y82470D1*
X531913Y81004D1*
X545009Y74777D1*
X555832Y85552D1*
X555811Y112282D1*
X501012Y112283D1*
X438609Y498047D2*
X442337Y500000D1*
X434471Y498055D1*
X559738Y370986D2*
X553812Y369005D1*
X525794Y340978D1*
X556580Y310234D1*
X559751Y309282D1*
X559748Y370979D1*
X-425575Y-471744D2*
X-426609Y-478273D1*
X-428651Y-484559D1*
X-431652Y-490449D1*
X-435898Y-496186D1*
X-412546Y-490617D1*
X-387831Y-490062D1*
X-360776Y-494049D1*
X-337123Y-502707D1*
X-314354Y-516503D1*
X-294978Y-533454D1*
X-273875Y-561135D1*
X-262820Y-588983D1*
X-258824Y-607459D1*
X-204406Y-607415D1*
X-209811Y-605659D1*
X-214875Y-603079D1*
X-219474Y-599738D1*
X-254041Y-565328D1*
X-361753Y-457617D1*
X-417929Y-457512D1*
X-423543Y-456622D1*
X-426291Y-455846D1*
X-426609Y-458604D1*
X-425575Y-465133D1*
Y-471744D1*
X-328794Y-22441D2*
X-331496D1*
Y219685D1*
Y337378D1*
X-346769Y337402D1*
X-572159Y112007D1*
X-572173Y31938D1*
X-570748Y37831D1*
X-568986Y42248D1*
X-566546Y46344D1*
X-552533Y63903D1*
X-549028Y67118D1*
X-545054Y69749D1*
X-525441Y79235D1*
X-520919Y80713D1*
X-516222Y81465D1*
X-493067Y81504D1*
X-488367Y80768D1*
X-483832Y79302D1*
X-463593Y69547D1*
X-459678Y66845D1*
X-456228Y63556D1*
X-442227Y45984D1*
X-439873Y41850D1*
X-438192Y37391D1*
X-433201Y15486D1*
X-432856Y1895D1*
X-432840Y-7723D1*
X-392676Y-48068D1*
X-389154Y-52916D1*
X-386433Y-58256D1*
X-384581Y-63955D1*
X-383644Y-69874D1*
X-383526Y-118802D1*
Y-289360D1*
X-328846Y-289377D1*
X-328825Y-22458D1*
X-203937Y177593D2*
Y145297D1*
X-194646Y136007D1*
X-194669Y281388D1*
X-203626Y290339D1*
X-203937Y277822D1*
X-203972Y177559D1*
X-203937Y417424D2*
Y356924D1*
X-187252Y356787D1*
X-182096Y355971D1*
X-177131Y354357D1*
X-172479Y351987D1*
X-168256Y348919D1*
X-158650Y339458D1*
X-158664Y417428D1*
X-203963Y417409D1*
X203937Y85440D2*
Y269685D1*
X203972Y419685D1*
X203937Y488957D1*
X-133885Y489404D1*
X-128358Y488077D1*
X-123108Y485903D1*
X-118261Y482933D1*
X-113940Y479241D1*
X-94902Y460046D1*
X-91560Y455448D1*
X-88980Y450383D1*
X-87224Y444978D1*
X-86335Y439364D1*
X-86223Y390591D1*
Y253621D1*
X79797Y87601D1*
X194504Y87466D1*
X200118Y86576D1*
X202866Y85801D1*
X-28971Y-26772D2*
X-9163D1*
X-8749Y-21804D1*
X-7423Y-16278D1*
X-5248Y-11028D1*
X-2278Y-6181D1*
X1421Y-1852D1*
X19744Y16314D1*
X24343Y19655D1*
X29407Y22235D1*
X34812Y23991D1*
X37613Y24547D1*
X39197Y25753D1*
X-128136Y193087D1*
X-128236Y927D1*
X-129054Y-4230D1*
X-130667Y-9194D1*
X-133037Y-13845D1*
X-136105Y-18070D1*
X-144652Y-26762D1*
X-121076Y-26772D1*
X-121063Y-26378D1*
X-28937D1*
Y-26773D1*
X-21029Y-154331D2*
X-42846D1*
X-40816Y-161937D1*
X-8484D1*
X-10781Y-158013D1*
X-12105Y-155138D1*
X-21063Y-154295D1*
X-557844Y-59007D2*
X-566783Y-47685D1*
X-569138Y-43551D1*
X-570819Y-39092D1*
X-572173Y-38358D1*
Y-138009D1*
X-557833Y-137996D1*
X-557864Y-58959D1*
X-557705Y-226185D2*
X-557864Y-210432D1*
X-572203Y-210437D1*
X-572173Y-312622D1*
X-557688Y-327098D1*
X-557686Y-226214D1*
X60496Y-232091D2*
Y-258408D1*
X83428Y-258392D1*
X82720Y-254294D1*
X60518Y-232091D1*
X134348Y-309938D2*
X144682D1*
X161751Y-292867D1*
X156675Y-292038D1*
X152261D1*
X134388Y-309915D1*
X307228Y-299370D2*
X318875Y-311017D1*
X318890Y-292071D1*
X299888Y-292038D1*
X307228Y-299370D1*
X-356839Y-377710D2*
D10*
X-304906D1*
X33465Y-408298D2*
X85398D1*
X-507686Y-309104D2*
Y-361037D1*
X-557650Y-309104D2*
X-507686D1*
D21*
X-423768Y-377710D3*
X-356839D3*
X33465Y-408298D3*
X-33465D3*
X486051Y162248D3*
X552980D3*
D23*
X-92825Y-263314D3*
Y-196385D3*
X232581Y-458857D3*
Y-391928D3*
X355110Y-454273D3*
Y-387344D3*
D24*
X-267717Y23622D3*
Y73622D3*
Y123622D3*
Y173622D3*
Y223622D3*
Y273622D3*
Y323622D3*
Y373622D3*
X267717Y23622D3*
Y73622D3*
Y123622D3*
Y173622D3*
Y223622D3*
Y273622D3*
Y323622D3*
Y373622D3*
Y423622D3*
Y473622D3*
D25*
X-25000Y-90551D3*
X25000D3*
X-75000Y-90157D3*
X75000Y-90551D3*
X-125000D3*
X125000D3*
X-175000D3*
X175000D3*
D26*
X-40354Y-546605D3*
Y-572196D3*
X40354D3*
Y-546605D3*
X-40354Y-521014D3*
Y-597786D3*
X40354D3*
Y-521014D3*
D52*
X511240Y852D3*
X-504505Y-850D3*
D23*
X-507864Y-174217D3*
Y-107287D3*
X-507686Y-242175D3*
Y-309104D3*
D28*
X-17063Y-294613D3*
Y-211936D3*
X18370Y-294613D3*
Y-211936D3*
D23*
X-154462Y-263336D3*
Y-196407D3*
X-214402Y-262765D3*
Y-195836D3*
G04 Top Clear*
%LPC*%
D17*
X460089Y461832D3*
X-464615Y453630D3*
X-23819Y431828D3*
X118Y431925D3*
X25106D3*
X543394Y409802D3*
X595969Y409114D3*
X402955Y387550D3*
X546163Y269428D3*
X-579537Y246337D3*
X560121Y104448D3*
X425852Y-72814D3*
X426650Y-103875D3*
X427151Y-135126D3*
X190810Y-206501D3*
X-314346Y-378621D3*
X-268184Y-417713D3*
X180446Y-441051D3*
X-467571Y-468438D3*
X-570508Y-251125D3*
X511220Y12663D2*
D30*
X511260Y-10959D1*
X-504525Y10961D2*
X-504485Y-12661D1*
M02*
